<svg xmlns="http://www.w3.org/2000/svg" viewBox="0 0 400 300" width="400" height="300">
  <defs>
    <linearGradient id="grad1" x1="0%" y1="0%" x2="100%" y2="100%">
      <stop offset="0%" style="stop-color:#87CEEB;stop-opacity:1" />
      <stop offset="100%" style="stop-color:#4169E1;stop-opacity:1" />
    </linearGradient>
  </defs>
  <rect width="400" height="300" fill="url(#grad1)"/>
  <rect x="60" y="40" width="280" height="200" fill="#f5e6d3" stroke="#333" stroke-width="3"/>
  <rect x="80" y="60" width="50" height="50" fill="#87CEEB" stroke="#333" stroke-width="2"/>
  <rect x="150" y="60" width="50" height="50" fill="#87CEEB" stroke="#333" stroke-width="2"/>
  <rect x="220" y="60" width="50" height="50" fill="#87CEEB" stroke="#333" stroke-width="2"/>
  <rect x="290" y="60" width="30" height="40" fill="#ff6b6b" stroke="#333" stroke-width="2"/>
  <rect x="80" y="130" width="50" height="50" fill="#87CEEB" stroke="#333" stroke-width="2"/>
  <rect x="150" y="130" width="50" height="50" fill="#87CEEB" stroke="#333" stroke-width="2"/>
  <rect x="220" y="130" width="50" height="50" fill="#87CEEB" stroke="#333" stroke-width="2"/>
  <rect x="290" y="130" width="30" height="50" fill="#8b4513" stroke="#333" stroke-width="2"/>
  <polygon points="60,240 60,260 80,260 80,245 320,245 320,260 340,260 340,240" fill="#654321" stroke="#333" stroke-width="2"/>
  <text x="200" y="290" font-size="18" font-weight="bold" text-anchor="middle" fill="#333">Modern Apartment</text>
</svg>